<svg xmlns="http://www.w3.org/2000/svg" width="130" height="137" viewBox="0 0 130 137" fill="none">
  <g opacity="0.5">
    <path d="M61.9352 19.7428C32.8189 19.7372 9.20887 43.3321 9.19581 72.4484C9.18274 101.565 32.7716 125.181 61.8878 125.201C91.0041 125.222 114.626 101.639 114.654 72.5228C114.67 58.5303 109.123 45.1053 99.2348 35.2054C89.3463 25.3055 75.9277 19.7428 61.9352 19.7428Z" stroke="#3A4374" stroke-width="1.04545" stroke-linecap="round" stroke-linejoin="round"/>
    <ellipse cx="89.5737" cy="55.3186" rx="2.436" ry="3.62355" fill="#231F20"/>
    <path d="M0 56.8512L123.83 29.4462L99.47 22.3412C99.47 22.3412 86.275 0.467961 82.753 0.0112108C79.2309 -0.445539 15.225 13.2062 15.225 13.2062L11.165 44.0216L0 56.8512Z" fill="#3A4374"/>
    <path d="M25.781 131.048L11.7842 108.921L72.9684 98.4561L77.1705 119.659L83.3823 100.131L114.685 106.312L108.321 131.048H25.781Z" fill="#3A4374"/>
    <path d="M104.182 83.0667L109.823 82.286L112.736 103.339C112.939 104.805 111.915 106.158 110.449 106.361L110.118 106.407C108.652 106.61 107.299 105.586 107.096 104.12L104.182 83.0667H104.182Z" fill="white"/>
    <path fill-rule="evenodd" clip-rule="evenodd" d="M106.595 104.201C106.817 105.775 108.162 106.947 109.752 106.952C109.891 106.951 110.03 106.94 110.168 106.921L110.493 106.87C111.332 106.76 112.092 106.317 112.604 105.642C113.115 104.967 113.334 104.115 113.213 103.277L110.32 82.2262C110.306 82.0924 110.236 81.9707 110.127 81.8913C110.021 81.8089 109.885 81.7724 109.752 81.7898L104.118 82.5713C103.841 82.6081 103.646 82.8624 103.682 83.1397L106.595 104.201ZM107.6 104.059L104.758 83.5051L109.386 82.9164L112.228 103.47C112.391 104.655 111.565 105.749 110.381 105.916H110.046C108.859 106.073 107.768 105.244 107.6 104.059Z" fill="#3A4374"/>
    <rect x="99.8501" y="64.4839" width="9.18575" height="20.7872" transform="rotate(-7.88 99.8501 64.4839)" fill="white"/>
    <path fill-rule="evenodd" clip-rule="evenodd" d="M102.393 85.4945C102.482 85.558 102.588 85.5933 102.698 85.596L102.759 85.5859L111.894 84.3273C112.171 84.2904 112.366 84.0362 112.33 83.7589L109.478 63.1645C109.463 63.0302 109.394 62.9077 109.287 62.8254C109.179 62.743 109.043 62.7079 108.909 62.7281L99.7745 63.9867C99.6428 64.0072 99.5234 64.076 99.4395 64.1795C99.3597 64.2873 99.3268 64.4227 99.3482 64.5551L102.2 85.1596C102.212 85.2943 102.283 85.4169 102.393 85.4945ZM103.134 84.51L100.424 64.9205L108.544 63.804L111.254 83.3935L103.134 84.51Z" fill="#3A4374"/>
    <rect x="104.676" y="99.3416" width="9.18575" height="36.1543" rx="3.248" transform="rotate(-7.88 104.676 99.3416)" fill="white"/>
    <path fill-rule="evenodd" clip-rule="evenodd" d="M108.676 132.022C108.934 133.877 110.519 135.258 112.391 135.26L112.899 135.27L115.578 134.895C117.624 134.606 119.053 132.719 118.776 130.672L114.716 101.237C114.432 99.1884 112.542 97.757 110.493 98.0399L107.814 98.4053C106.829 98.5442 105.939 99.0658 105.337 99.8568C104.736 100.651 104.476 101.652 104.616 102.638L108.676 132.022ZM110.635 99.0143C110.76 99.0043 110.886 99.0043 111.011 99.0143L110.98 99.0245C112.343 99.0318 113.494 100.039 113.68 101.389L117.74 130.824C117.921 132.306 116.883 133.659 115.406 133.869L112.726 134.245C111.246 134.42 109.896 133.385 109.681 131.91L105.621 102.475C105.513 101.755 105.703 101.022 106.149 100.445C106.584 99.8621 107.235 99.478 107.956 99.3797L110.635 99.0143Z" fill="#3A4374"/>
    <circle cx="103.672" cy="58.6072" r="24.3904" fill="white"/>
    <path fill-rule="evenodd" clip-rule="evenodd" d="M78.7806 59.7295C79.3858 73.0274 90.34 83.4991 103.652 83.5051C104.813 83.5046 105.972 83.4266 107.123 83.2717C120.721 81.348 130.205 68.7924 128.336 55.1866C126.514 42.0003 114.645 32.5777 101.389 33.7929C88.133 35.0081 78.1753 46.4316 78.7806 59.7295ZM100.353 34.9374C101.446 34.7876 102.548 34.713 103.652 34.7141H103.692C115.589 34.7656 125.641 43.5472 127.291 55.3287C128.616 64.9018 124.044 74.3306 115.707 79.2181C107.369 84.1056 96.9086 83.4891 89.2029 77.6561C81.4973 71.8231 78.0643 61.9225 80.5051 52.5714C82.9458 43.2203 90.7795 36.2604 100.353 34.9374Z" fill="#3A4374"/>
    <circle cx="103.672" cy="58.6072" r="19.8128" fill="white"/>
    <path fill-rule="evenodd" clip-rule="evenodd" d="M83.3736 59.3276C83.7509 70.2601 92.7228 78.9276 103.662 78.9275C104.596 78.9286 105.528 78.8641 106.453 78.7346C117.288 77.2304 124.983 67.4113 123.853 56.5309C122.723 45.6504 113.175 37.6218 102.262 38.3757C91.3494 39.1297 82.9963 48.3952 83.3736 59.3276ZM100.972 39.5252C101.864 39.4041 102.762 39.343 103.662 39.3425C114.05 39.3646 122.554 47.6114 122.895 57.9942C123.236 68.3769 115.292 77.1641 104.928 77.8681C94.5631 78.5721 85.5035 70.9399 84.4374 60.6064C83.3714 50.2729 90.6822 40.9519 100.972 39.5252Z" fill="#3A4374"/>
    <path d="M126.967 113.59C125.626 111.889 123.928 110.503 121.993 109.53C116.177 106.485 109.509 106.586 103.388 108.515C101.216 109.205 97.0037 110.189 96.7804 113.072C96.797 114.253 97.5844 115.283 98.7191 115.61C99.8298 115.898 100.99 115.943 102.119 115.742C100.51 115.698 98.9189 116.099 97.5214 116.899C96.212 117.822 95.4914 119.842 96.5673 121.07C97.0428 121.581 97.6622 121.935 98.3435 122.085C99.8246 122.493 101.391 122.471 102.86 122.024C101.27 122.329 99.7205 122.816 98.242 123.476C97.3488 123.872 96.3541 124.572 96.4556 125.506C96.5571 126.44 97.4706 126.866 98.3029 127.15C100.054 127.751 101.883 128.093 103.733 128.165C102.137 128.455 100.627 129.104 99.3179 130.063C97.2879 131.768 97.2879 135.006 100.039 135.93C100.921 136.188 101.841 136.294 102.759 136.245C110.879 136.245 120.602 135.23 126.104 128.47C128.811 125.306 129.783 121.011 128.702 116.99C128.326 115.764 127.739 114.613 126.967 113.59Z" fill="white"/>
    <path fill-rule="evenodd" clip-rule="evenodd" d="M99.876 136.387C100.791 136.655 101.745 136.768 102.698 136.722L102.728 136.742C110.767 136.732 120.734 135.818 126.489 128.784C129.313 125.491 130.32 121.013 129.179 116.828C128.774 115.553 128.153 114.359 127.342 113.295C125.961 111.518 124.204 110.069 122.196 109.053C116.735 106.272 109.985 105.896 103.205 108.038L102.556 108.231C102.533 108.237 102.51 108.244 102.488 108.251C100.072 108.992 96.4736 110.095 96.2423 113.031C96.2309 114.308 96.9991 115.462 98.181 115.945C97.8224 116.087 97.4818 116.271 97.166 116.493C96.2733 117.136 95.6799 118.114 95.5217 119.203C95.4025 119.985 95.6201 120.782 96.1205 121.395C96.66 121.983 97.3697 122.388 98.1505 122.552C98.3308 122.606 98.5137 122.65 98.6986 122.684L97.978 122.989C96.5773 123.648 95.7957 124.704 95.948 125.577C96.1002 126.45 96.7803 127.14 98.1302 127.607C99.1217 127.952 100.14 128.213 101.175 128.388C100.378 128.685 99.6372 129.114 98.9828 129.657C97.8016 130.652 97.2246 132.191 97.4603 133.717C97.7114 134.984 98.64 136.011 99.876 136.387ZM98.4449 123.872C99.5057 123.395 100.606 123.011 101.733 122.725C102.159 122.675 102.58 122.59 102.992 122.471C103.248 122.388 103.398 122.124 103.337 121.862C103.272 121.6 103.013 121.435 102.748 121.486C102.342 121.568 101.926 121.659 101.52 121.76C100.502 121.894 99.467 121.825 98.4753 121.557C97.8959 121.439 97.3655 121.149 96.9528 120.725C96.6395 120.326 96.507 119.815 96.5874 119.314C96.7055 118.499 97.1485 117.767 97.8156 117.284C98.6981 116.726 99.7067 116.398 100.749 116.33C100.984 116.325 101.217 116.299 101.446 116.273C101.692 116.246 101.934 116.219 102.17 116.219C102.444 116.187 102.645 115.946 102.627 115.67C102.595 115.399 102.362 115.197 102.089 115.204C102.059 115.206 102.03 115.208 102 115.21C101.581 115.238 101.144 115.268 100.698 115.315C100.084 115.355 99.4676 115.279 98.8813 115.092C97.9638 114.834 97.3166 114.014 97.2776 113.062C97.4601 110.79 100.722 109.806 102.874 109.156L102.88 109.154L103.54 108.951C110.067 106.921 116.532 107.276 121.759 109.966C123.635 110.911 125.275 112.264 126.56 113.925C127.302 114.893 127.872 115.981 128.245 117.142C129.28 121.004 128.338 125.127 125.728 128.155C120.247 134.864 110.574 135.737 102.748 135.737C101.889 135.793 101.027 135.697 100.201 135.453C99.3094 135.197 98.6357 134.464 98.455 133.555C98.2748 132.382 98.7262 131.202 99.6426 130.449C100.901 129.548 102.343 128.934 103.865 128.652C104.109 128.588 104.269 128.355 104.241 128.104C104.215 127.853 104.005 127.661 103.753 127.658C101.95 127.581 100.168 127.239 98.4652 126.643C97.8156 126.429 97.0442 126.166 96.963 125.414C96.8818 124.663 97.9678 124.085 98.4449 123.872Z" fill="#3A4374"/>
    <path d="M70.3702 58.9929C70.3702 58.9929 82.7329 77.5674 75.2523 77.8313C67.7718 78.0952 67.1323 76.1362 67.1323 76.1362" fill="white"/>
    <path d="M73.9124 78.42C67.6397 78.42 66.7363 76.7046 66.6145 76.39C66.5269 76.1129 66.6752 75.8162 66.9495 75.7201C67.2239 75.6331 67.5175 75.7821 67.6092 76.055C67.6092 76.055 68.5227 77.6283 75.2319 77.3847C75.8995 77.4462 76.5418 77.1132 76.8762 76.5321C78.4799 73.416 72.4102 63.0833 69.9336 59.3684C69.7957 59.1284 69.8667 58.8227 70.0962 58.668C70.3256 58.5132 70.6356 58.562 70.8065 58.7797C71.7504 60.2007 79.9415 72.7867 77.81 77.0497C77.3124 77.9777 76.324 78.5351 75.2725 78.4809L73.9124 78.42Z" fill="#3A4374"/>
    <ellipse cx="104.799" cy="57.988" rx="4.4863" ry="7.64295" fill="#C0C5DC"/>
    <ellipse cx="49.8976" cy="57.988" rx="3.42055" ry="6.18135" fill="#3A4374"/>
  </g>
</svg>